# xmcd
# Copyright (C) 1995-1998 Ti Kan
#
# Track frame offsets:
#       150
#       17740
#       32210
#       46118
#       66776
#       83051
#       98756
#       114366
#       129263
#       151091
#       168799
#
# Disc length: 2646 seconds
#
# Revision: 0
# Processed by: cddbd v1.5.2PL0 Copyright (c) Steve Scherf et al.
# Submitted via: CD-Import v1.0
#
DISCID=750a540b
DTITLE=Fhobi - Popcorned
DYEAR=1900
DGENRE=
TTITLE0=Because
TTITLE1=Una Rstrella
TTITLE2=Storm In Mind
TTITLE3=Addict To 
TTITLE4=Oh Not Me
TTITLE5=Rage
TTITLE6=My Desire
TTITLE7=In The Box
TTITLE8=War In Moon
TTITLE9=Un Passé Bien Pensé
TTITLE10=Popcorned
EXTD=
EXTT0=
EXTT1=
EXTT2=
EXTT3=
EXTT4=
EXTT5=
EXTT6=
EXTT7=
EXTT8=
EXTT9=
EXTT10=
PLAYORDER=
